<svg class="svg-icon" style="width: 1em; height: 1em;vertical-align: middle;fill: currentColor;overflow: hidden;" viewBox="0 0 1024 1024" version="1.1" xmlns="http://www.w3.org/2000/svg"><path d="M695.414 619.085h-363.847c-14.365 0-25.978 11.752-25.978 26.23 0 14.507 11.639 26.258 25.978 26.258h363.847c14.365 0 26.005-11.752 26.005-26.258 0-14.479-11.639-26.23-26.005-26.23zM695.414 724.034h-363.847c-14.365 0-25.978 11.723-25.978 26.23s11.639 26.258 25.978 26.258h363.847c14.365 0 26.005-11.752 26.005-26.258s-11.639-26.23-26.005-26.23zM331.566 356.784h207.929c14.337 0 25.978-11.752 25.978-26.258s-11.639-26.23-25.978-26.23h-207.929c-14.365 0-25.978 11.723-25.978 26.23s11.61 26.258 25.978 26.258zM753.891 251.864h-64.972c-10.712 0-19.483-10.289-19.483-22.942v-59.039c0-41.58-32.049-75.429-71.465-75.429h-324.854c-39.443 0-71.493 33.821-71.493 75.429v688.562c0 41.58 32.049 75.429 71.465 75.429h480.83c39.387 0 71.465-33.821 71.465-75.429v-531.182c-0.028-41.58-32.078-75.401-71.493-75.401zM773.401 356.784v501.662c0 12.651-8.771 22.942-19.483 22.942h-480.83c-10.739 0-19.483-10.289-19.483-22.942v-688.562c0-12.651 8.743-22.942 19.483-22.942h324.854c10.739 0 19.483 10.289 19.483 22.942v59.039c0 41.58 32.049 75.429 71.465 75.429h64.972c10.739 0 19.483 10.29 19.483 22.942v29.492zM695.414 514.165h-363.847c-14.365 0-25.978 11.752-25.978 26.23 0 14.507 11.639 26.258 25.978 26.258h363.847c14.365 0 26.005-11.752 26.005-26.258 0-14.479-11.639-26.23-26.005-26.23zM695.414 409.244h-363.847c-14.365 0-25.978 11.752-25.978 26.258s11.639 26.23 25.978 26.23h363.847c14.365 0 26.005-11.723 26.005-26.23s-11.639-26.258-26.005-26.258z"  /></svg>